<svg width="190" height="112" viewBox="0 0 190 112" fill="none" xmlns="http://www.w3.org/2000/svg">
<path d="M20.7665 92.1186L18.0667 93.4942L18.3786 95.6922L21.0783 94.3166L21.6435 98.069L18.917 99.4582L19.5553 104.015L16.1339 105.758L15.4955 101.202L13.3037 102.318L13.942 106.875L10.5205 108.619L9.88219 104.062L7.15571 105.451L6.59055 101.699L9.34376 100.296L9.03191 98.0977L6.30543 99.4869L5.74027 95.7345L8.49348 94.3317L7.85513 89.7748L11.2766 88.0315L11.9149 92.5883L14.1068 91.4715L13.4685 86.9147L16.8899 85.1713L17.5283 89.7282L20.2013 88.3662L20.7665 92.1186ZM14.9571 97.4355L14.6453 95.2376L12.4534 96.3544L12.7652 98.5524L14.9571 97.4355ZM26.7013 102.058L20.4553 81.6712L24.1708 79.7781L34.0205 87.0825L30.7732 76.414L35.5311 73.9897L41.7771 94.376L38.0883 96.2556L28.2386 88.9511L31.486 99.6196L26.7013 102.058ZM54.2721 88.5146C52.3831 89.4771 50.4942 89.8447 48.6052 89.6175C46.7161 89.3904 45.0872 88.6603 43.7182 87.4274C42.3493 86.1946 41.3714 84.6277 40.7845 82.727C39.8859 79.8179 39.9981 76.9324 41.1213 74.0706C42.2445 71.2088 44.2673 69.0333 47.1898 67.5442C50.0232 66.1005 52.7325 65.9771 55.3176 67.1739C57.9114 68.3439 59.6711 70.3878 60.5967 73.3056C61.5135 76.2503 61.4192 79.1491 60.3139 82.0018C59.2263 84.8455 57.2124 87.0164 54.2721 88.5146ZM48.2799 83.891C49.5274 84.4451 50.8729 84.3544 52.3163 83.6189C53.7597 82.8834 54.8111 81.7529 55.4704 80.2273C56.1383 78.6749 56.2203 77.0955 55.7161 75.4893C55.2298 73.8741 54.354 72.794 53.0887 72.249C51.8143 71.6862 50.4554 71.7726 49.0119 72.508C47.5685 73.2435 46.5306 74.3784 45.8983 75.9127C45.2746 77.4201 45.206 78.9815 45.6923 80.5967C46.1877 82.2298 47.0503 83.3279 48.2799 83.891ZM69.4359 56.7143L73.5523 54.6169L79.7983 75.0033L75.0136 77.4412L70.5283 62.757L67.5557 65.3154L64.9625 61.2832L69.4359 56.7143ZM101.902 40.1718L108.148 60.5582L103.39 62.9825L100.006 51.9796L97.9932 62.5002L97.5121 62.7454L90.4223 56.6945L93.8478 67.8447L89.063 70.2827L82.8171 49.8963L87.6018 47.4584L94.7622 53.9782L96.8237 42.7596L101.902 40.1718ZM118.783 55.6448C116.502 56.807 114.424 57.0911 112.55 56.4971C110.694 55.894 109.45 54.5528 108.817 52.4736L104.634 38.7799L109.419 36.342L113.45 49.5404C113.964 51.2538 115.103 51.6611 116.867 50.7622C118.614 49.8724 119.23 48.5707 118.716 46.8573L114.658 33.6726L119.443 31.2346L123.625 44.9283C124.323 47.2217 124.222 49.3155 123.324 51.2096C122.417 53.0859 120.903 54.5643 118.783 55.6448ZM141.189 20.1546L147.434 40.5409L142.677 42.9652L139.292 31.9623L137.279 42.4829L136.798 42.7281L129.708 36.6773L133.134 47.8275L128.349 50.2654L122.103 29.879L126.888 27.4411L134.048 33.961L136.11 22.7423L141.189 20.1546ZM163.246 8.91563L169.492 29.302L164.734 31.7263L161.35 20.7234L159.337 31.244L158.856 31.4892L151.766 25.4384L155.191 36.5885L150.407 39.0265L144.161 18.6401L148.945 16.2022L156.106 22.7221L158.167 11.5034L163.246 8.91563ZM183.932 21.9447L182.262 19.3948L176.034 22.5681L176.126 25.9216L170.861 28.6047L170.789 5.07221L176.616 2.10311L189.037 19.3433L183.932 21.9447ZM175.914 17.4438L179.71 15.5098L175.719 9.39524L175.914 17.4438Z" fill="#E6A4B4"/>
</svg>
