<svg width="515" height="97" viewBox="0 0 515 97" fill="none" xmlns="http://www.w3.org/2000/svg">
<path d="M5.00009 108.5L24.7184 50.6483C26.3004 46.0069 28.5551 41.6228 31.4103 37.6362L43.2402 21.119C59.0231 -0.917454 92.335 0.840361 105.711 24.4155L113.951 38.9389C121.462 52.1774 139.31 55.0374 150.582 44.8088V44.8088C161.118 35.2477 177.639 37.0277 185.896 48.6138L191.139 55.9701C202.318 71.654 224.764 73.873 238.797 60.6813L273.428 28.1261C303.541 -0.182207 351.965 5.82822 374.244 40.6393L387.313 61.0596C398.726 78.8928 422.025 84.8001 440.556 74.5591V74.5591C458.7 64.5319 481.495 69.9652 493.166 87.0988L510.852 113.065" stroke="#9DBC98" stroke-width="10"/>
</svg>
