<svg width="90" height="266" viewBox="0 0 90 266" fill="none" xmlns="http://www.w3.org/2000/svg">
<path d="M-2.38461 5V5C5.29015 7.02759 11.8252 12.06 15.7465 18.962L19.1413 24.9375C24.8833 35.0443 26.5746 46.9539 23.8736 58.2596L19.6407 75.9776C16.0733 90.9101 24.6605 106.059 39.3051 110.668L56.8756 116.197C75.01 121.904 77.3383 146.621 60.5886 155.614V155.614C43.5085 164.785 46.3558 190.102 65.0462 195.25L67.7859 196.005C92.8214 202.9 88.4002 239.658 62.4436 240.421L43.9105 240.965C38.9988 241.109 34.2344 242.675 30.1946 245.472L19.9116 252.592C12.0051 258.067 2.61694 261 -7 261V261" stroke="#9DBC98" stroke-width="10"/>
</svg>
