<svg width="98" height="321" viewBox="0 0 98 321" fill="none" xmlns="http://www.w3.org/2000/svg">
<path d="M100.526 8V8C89.7191 10.4248 80.2581 16.911 74.1003 26.1166L71.6643 29.7582C62.863 42.9158 60.2631 59.267 64.5496 74.5055L66.9541 83.0537C74.0995 108.456 67.0571 135.739 48.5095 154.509L26.6688 176.612C19.0675 184.305 13.6338 193.869 10.918 204.337V204.337C7.71881 216.669 8.43642 229.69 12.9713 241.596L14.4303 245.426C17.4209 253.277 21.7228 260.563 27.1526 266.974L34.5791 275.742C42.2323 284.778 51.3542 292.459 61.5613 298.462L68.4234 302.497C80.1164 309.374 93.4349 313 107 313V313" stroke="#9DBC98" stroke-width="16"/>
</svg>
